<svg width="206" height="40" viewBox="0 0 206 40" fill="none" xmlns="http://www.w3.org/2000/svg">
<path d="M76.8739 27.9444H83.9732L83.715 29.0736H77.9015L77.2784 31.8709H82.6543L82.4155 32.9374H77.0397L76.3371 36.0609H82.2497L82.0047 37.1583H74.8059L76.8739 27.9444Z" fill="#102694"/>
<path d="M85.216 30.4408H86.3497L86.1375 31.3943C86.5615 31.0015 86.9802 30.7189 87.3936 30.5477C87.8066 30.3759 88.243 30.2903 88.7029 30.2903C89.7101 30.2903 90.3159 30.6227 90.5188 31.2875C90.6338 31.6512 90.6161 32.1721 90.4662 32.8493L89.4983 37.1585H88.285L89.233 32.9248C89.3259 32.5147 89.3369 32.1845 89.2662 31.9337C89.1468 31.5157 88.809 31.3065 88.2519 31.3065C87.9689 31.3065 87.7306 31.3338 87.536 31.3881C87.1867 31.48 86.8577 31.664 86.5482 31.9399C86.3006 32.1615 86.1207 32.3906 86.0084 32.6268C85.8956 32.863 85.7904 33.2006 85.6931 33.6399L84.9043 37.1585H83.7113L85.216 30.4408Z" fill="#102694"/>
<path d="M97.1245 33.2634C97.1864 32.7743 97.1621 32.3832 97.0515 32.0905C96.8481 31.5471 96.3644 31.2752 95.5999 31.2752C95.0516 31.2752 94.5502 31.4624 94.0952 31.8363C93.6398 32.2106 93.3351 32.6864 93.1804 33.2634H97.1245ZM98.1653 31.4946C98.3285 31.8332 98.3992 32.2282 98.3771 32.6803C98.3815 32.9897 98.3064 33.4828 98.1521 34.1604H92.9482C92.8156 34.8419 92.8634 35.3889 93.0911 35.8007C93.3183 36.2126 93.7658 36.4183 94.433 36.4183C95.0565 36.4183 95.5955 36.224 96.0505 35.8351C96.3158 35.6091 96.5258 35.3478 96.6805 35.0512H97.8536C97.7652 35.2979 97.6007 35.5725 97.3597 35.8758C97.1187 36.179 96.868 36.4271 96.6076 36.6191C96.1698 36.9537 95.6706 37.1793 95.1095 37.2967C94.8044 37.3634 94.4706 37.3969 94.1085 37.3969C93.2246 37.3969 92.5441 37.0928 92.0666 36.4845C91.5895 35.8758 91.4745 35.0238 91.7221 33.9282C91.9649 32.8493 92.4712 31.9735 93.2401 31.2999C94.009 30.6267 94.8929 30.2904 95.8917 30.2904C96.3953 30.2904 96.8592 30.4021 97.2836 30.6259C97.7077 30.8497 98.0017 31.1392 98.1653 31.4946Z" fill="#102694"/>
<path d="M100.621 30.4408H101.755L101.496 31.6014C101.638 31.3753 101.926 31.1003 102.361 30.7763C102.797 30.4523 103.251 30.2903 103.723 30.2903C103.745 30.2903 103.783 30.2925 103.836 30.2965C103.889 30.3005 103.978 30.3093 104.101 30.3217L103.836 31.5135C103.765 31.5007 103.701 31.4923 103.644 31.4883C103.586 31.4844 103.522 31.4822 103.451 31.4822C102.851 31.4822 102.348 31.6649 101.944 32.0309C101.539 32.3968 101.282 32.8179 101.171 33.2947L100.309 37.1585H99.1165L100.621 30.4408Z" fill="#102694"/>
<path d="M107.77 31.3189C106.93 31.3189 106.274 31.691 105.801 32.4353C105.545 32.8325 105.346 33.3534 105.205 33.997C105.033 34.7541 105.064 35.3301 105.301 35.7252C105.537 36.1203 105.93 36.3181 106.478 36.3181C107.335 36.3181 108.02 35.9521 108.532 35.2202C108.82 34.8062 109.025 34.3232 109.149 33.7715C109.339 32.9394 109.297 32.3223 109.023 31.921C108.749 31.5197 108.332 31.3189 107.77 31.3189ZM109.149 30.7106C109.343 30.8567 109.524 31.0704 109.692 31.3502L109.884 30.5036H110.985L109.613 36.6129C109.423 37.4658 109.14 38.1389 108.764 38.6325C108.062 39.544 107.023 40 105.649 40C104.884 40 104.278 39.8376 103.829 39.514C103.381 39.1895 103.203 38.6828 103.296 37.9928H104.509C104.5 38.2939 104.564 38.5261 104.701 38.689C104.913 38.9397 105.308 39.0655 105.888 39.0655C106.802 39.0655 107.47 38.76 107.889 38.1495C108.137 37.7898 108.358 37.1479 108.552 36.224C108.239 36.5666 107.895 36.8222 107.521 36.989C107.148 37.1563 106.685 37.2402 106.133 37.2402C105.364 37.2402 104.748 36.982 104.287 36.4655C103.825 35.949 103.729 35.0949 103.998 33.903C104.25 32.7783 104.738 31.9003 105.46 31.2686C106.182 30.6373 106.955 30.3217 107.777 30.3217C108.333 30.3217 108.791 30.451 109.149 30.7106Z" fill="#102694"/>
<path d="M117.365 30.4408H118.684C118.419 30.8712 117.825 31.8543 116.901 33.3887C116.212 34.543 115.639 35.4837 115.184 36.2116C114.106 37.9256 113.383 38.9714 113.017 39.3475C112.65 39.724 112.122 39.9121 111.432 39.9121C111.264 39.9121 111.136 39.9059 111.048 39.8931C110.96 39.8807 110.853 39.8573 110.73 39.8242L110.962 38.7957C111.156 38.85 111.299 38.8835 111.389 38.8959C111.48 38.9087 111.56 38.9149 111.631 38.9149C111.852 38.9149 112.023 38.8804 112.141 38.8111C112.261 38.7423 112.367 38.6575 112.46 38.5573C112.491 38.5238 112.609 38.3521 112.814 38.0431C113.02 37.7332 113.171 37.5036 113.269 37.3531L112.195 30.4408H113.547L114.223 35.9105L117.365 30.4408Z" fill="#102694"/>
<path d="M131.968 30.7105H130.682C130.669 30.1146 130.483 29.6427 130.125 29.2944C129.767 28.9466 129.195 28.7722 128.408 28.7722C127.45 28.7722 126.604 29.0914 125.873 29.7297C125.142 30.3675 124.628 31.3462 124.332 32.6643C124.089 33.744 124.158 34.6198 124.541 35.2916C124.923 35.9635 125.642 36.2994 126.698 36.2994C127.67 36.2994 128.49 35.9458 129.157 35.2391C129.507 34.867 129.816 34.3774 130.085 33.7714H131.372C131.04 34.7416 130.479 35.5552 129.688 36.2116C128.733 37.0017 127.6 37.3968 126.287 37.3968C125.156 37.3968 124.279 37.0728 123.655 36.4248C122.838 35.5675 122.631 34.2441 123.032 32.4541C123.338 31.0954 123.967 29.9808 124.922 29.1112C125.956 28.1661 127.195 27.6934 128.64 27.6934C129.874 27.6934 130.761 28.001 131.305 28.6155C131.849 29.2304 132.07 29.9287 131.968 30.7105Z" fill="#102694"/>
<path d="M137.858 33.6899C137.999 33.0626 138.008 32.5523 137.884 32.1595C137.685 31.5406 137.175 31.2311 136.353 31.2311C135.624 31.2311 135.035 31.4947 134.587 32.0213C134.138 32.5484 133.83 33.184 133.662 33.9283C133.502 34.6434 133.535 35.2393 133.758 35.716C133.981 36.1923 134.453 36.4307 135.173 36.4307C135.964 36.4307 136.571 36.1477 136.993 35.581C137.415 35.0142 137.703 34.3838 137.858 33.6899ZM139.11 33.6585C138.868 34.7414 138.388 35.6366 137.672 36.3433C136.956 37.0496 136.013 37.4032 134.842 37.4032C133.865 37.4032 133.16 37.0906 132.727 36.4656C132.294 35.8405 132.195 35.0009 132.429 33.9472C132.685 32.8181 133.191 31.9189 133.947 31.2501C134.703 30.5809 135.591 30.2463 136.612 30.2463C137.526 30.2463 138.234 30.535 138.736 31.1119C139.238 31.6889 139.362 32.5378 139.11 33.6585Z" fill="#102694"/>
<path d="M141.387 30.4408H142.567L142.355 31.3943C142.713 31.0641 143.022 30.8236 143.283 30.673C143.734 30.4179 144.209 30.2903 144.708 30.2903C145.274 30.2903 145.701 30.4219 145.988 30.6854C146.147 30.8359 146.273 31.0575 146.366 31.3502C146.715 30.9904 147.087 30.7242 147.482 30.5508C147.878 30.3773 148.299 30.2903 148.745 30.2903C149.7 30.2903 150.276 30.6165 150.475 31.269C150.582 31.6199 150.568 32.0927 150.436 32.6864L149.435 37.1585H148.195L149.242 32.4917C149.34 32.0445 149.289 31.7369 149.09 31.57C148.891 31.4027 148.621 31.3188 148.281 31.3188C147.813 31.3188 147.376 31.4672 146.972 31.7642C146.568 32.0613 146.288 32.557 146.133 33.251L145.258 37.1585H144.046L145.026 32.7742C145.128 32.3187 145.146 31.9858 145.079 31.777C144.969 31.4632 144.666 31.3065 144.172 31.3065C143.721 31.3065 143.273 31.4716 142.829 31.8018C142.385 32.1324 142.066 32.7301 141.871 33.5957L141.076 37.1585H139.883L141.387 30.4408Z" fill="#102694"/>
<path d="M152.832 30.4408H154.012L153.8 31.3943C154.157 31.0641 154.467 30.8236 154.728 30.673C155.178 30.4179 155.653 30.2903 156.153 30.2903C156.718 30.2903 157.145 30.4219 157.432 30.6854C157.591 30.8359 157.717 31.0575 157.81 31.3502C158.159 30.9904 158.531 30.7242 158.927 30.5508C159.322 30.3773 159.743 30.2903 160.19 30.2903C161.145 30.2903 161.721 30.6165 161.92 31.269C162.026 31.6199 162.013 32.0927 161.88 32.6864L160.879 37.1585H159.64L160.687 32.4917C160.784 32.0445 160.733 31.7369 160.534 31.57C160.336 31.4027 160.066 31.3188 159.726 31.3188C159.257 31.3188 158.821 31.4672 158.417 31.7642C158.012 32.0613 157.732 32.557 157.578 33.251L156.703 37.1585H155.49L156.471 32.7742C156.573 32.3187 156.59 31.9858 156.524 31.777C156.413 31.4632 156.111 31.3065 155.616 31.3065C155.165 31.3065 154.718 31.4716 154.274 31.8018C153.829 32.1324 153.51 32.7301 153.316 33.5957L152.52 37.1585H151.327L152.832 30.4408Z" fill="#102694"/>
<path d="M164.84 27.9444H166.053L165.761 29.2241H164.548L164.84 27.9444ZM164.27 30.472H165.483L163.985 37.1583H162.772L164.27 30.472Z" fill="#102694"/>
<path d="M167.103 35.051C167.055 35.4275 167.09 35.7158 167.209 35.9166C167.426 36.2804 167.905 36.4622 168.648 36.4622C169.09 36.4622 169.5 36.3713 169.877 36.1894C170.256 36.0076 170.486 35.7264 170.57 35.3459C170.637 35.0572 170.55 34.8378 170.312 34.6873C170.161 34.5954 169.845 34.4886 169.364 34.3672L168.469 34.1417C167.894 33.9995 167.484 33.8406 167.236 33.6649C166.789 33.3595 166.628 32.937 166.752 32.3976C166.894 31.7619 167.25 31.2477 167.823 30.8548C168.395 30.4619 169.09 30.265 169.908 30.265C170.977 30.265 171.681 30.5621 172.022 31.1558C172.234 31.5324 172.287 31.9376 172.181 32.3729H171.054C171.089 32.1177 171.045 31.8855 170.921 31.6763C170.714 31.3797 170.272 31.2309 169.596 31.2309C169.145 31.2309 168.786 31.3126 168.519 31.4759C168.251 31.6388 168.087 31.8542 168.025 32.1217C167.958 32.4144 168.058 32.6488 168.323 32.8244C168.478 32.9286 168.719 33.0209 169.046 33.1003L169.795 33.2822C170.607 33.4786 171.14 33.6689 171.392 33.853C171.79 34.1417 171.918 34.5954 171.777 35.2139C171.644 35.812 171.289 36.3285 170.713 36.7633C170.136 37.1981 169.357 37.4157 168.376 37.4157C167.32 37.4157 166.623 37.1888 166.284 36.735C165.947 36.2813 165.837 35.7198 165.956 35.051H167.103Z" fill="#102694"/>
<path d="M174.027 35.051C173.978 35.4275 174.014 35.7158 174.133 35.9166C174.349 36.2804 174.829 36.4622 175.572 36.4622C176.013 36.4622 176.424 36.3713 176.801 36.1894C177.179 36.0076 177.41 35.7264 177.494 35.3459C177.56 35.0572 177.474 34.8378 177.235 34.6873C177.085 34.5954 176.769 34.4886 176.287 34.3672L175.393 34.1417C174.818 33.9995 174.407 33.8406 174.16 33.6649C173.713 33.3595 173.552 32.937 173.676 32.3976C173.818 31.7619 174.174 31.2477 174.747 30.8548C175.319 30.4619 176.013 30.265 176.831 30.265C177.9 30.265 178.605 30.5621 178.946 31.1558C179.158 31.5324 179.211 31.9376 179.105 32.3729H177.978C178.013 32.1177 177.969 31.8855 177.845 31.6763C177.637 31.3797 177.196 31.2309 176.52 31.2309C176.069 31.2309 175.71 31.3126 175.442 31.4759C175.175 31.6388 175.011 31.8542 174.949 32.1217C174.882 32.4144 174.982 32.6488 175.247 32.8244C175.402 32.9286 175.642 33.0209 175.97 33.1003L176.719 33.2822C177.531 33.4786 178.064 33.6689 178.316 33.853C178.714 34.1417 178.842 34.5954 178.7 35.2139C178.568 35.812 178.213 36.3285 177.637 36.7633C177.06 37.1981 176.281 37.4157 175.3 37.4157C174.243 37.4157 173.547 37.1888 173.209 36.735C172.87 36.2813 172.761 35.7198 172.88 35.051H174.027Z" fill="#102694"/>
<path d="M181.839 27.9444H183.052L182.76 29.2241H181.547L181.839 27.9444ZM181.269 30.472H182.482L180.984 37.1583H179.771L181.269 30.472Z" fill="#102694"/>
<path d="M188.584 33.6899C188.725 33.0626 188.734 32.5523 188.61 32.1595C188.411 31.5406 187.901 31.2311 187.079 31.2311C186.35 31.2311 185.761 31.4947 185.313 32.0213C184.864 32.5484 184.555 33.184 184.388 33.9283C184.228 34.6434 184.26 35.2393 184.484 35.716C184.707 36.1923 185.179 36.4307 185.899 36.4307C186.69 36.4307 187.297 36.1477 187.719 35.581C188.141 35.0142 188.429 34.3838 188.584 33.6899ZM189.836 33.6585C189.593 34.7414 189.114 35.6366 188.398 36.3433C187.682 37.0496 186.738 37.4032 185.568 37.4032C184.591 37.4032 183.886 37.0906 183.453 36.4656C183.02 35.8405 182.92 35.0009 183.155 33.9472C183.411 32.8181 183.917 31.9189 184.673 31.2501C185.428 30.5809 186.317 30.2463 187.338 30.2463C188.252 30.2463 188.96 30.535 189.462 31.1119C189.964 31.6889 190.088 32.5378 189.836 33.6585Z" fill="#102694"/>
<path d="M192.113 30.4408H193.247L193.035 31.3943C193.459 31.0015 193.877 30.7189 194.291 30.5477C194.704 30.3759 195.14 30.2903 195.6 30.2903C196.608 30.2903 197.213 30.6227 197.416 31.2875C197.531 31.6512 197.513 32.1721 197.363 32.8493L196.396 37.1585H195.182L196.13 32.9248C196.223 32.5147 196.234 32.1845 196.164 31.9337C196.044 31.5157 195.706 31.3065 195.149 31.3065C194.866 31.3065 194.628 31.3338 194.433 31.3881C194.084 31.48 193.755 31.664 193.446 31.9399C193.198 32.1615 193.018 32.3906 192.906 32.6268C192.793 32.863 192.687 33.2006 192.591 33.6399L191.802 37.1585H190.609L192.113 30.4408Z" fill="#102694"/>
<path d="M80.6642 20.6692C80.6642 21.126 80.5347 21.4884 80.2716 21.7811C80.0129 22.0557 79.672 22.1996 79.2462 22.1996H74.1436V20.6692H79.2462V17.6807H75.4396C75.0116 17.6807 74.6694 17.5341 74.4112 17.2454C74.152 16.9634 74.0274 16.5943 74.0274 16.1428V13.7917C74.0274 13.364 74.1644 13.002 74.435 12.7089C74.7074 12.4109 75.0474 12.2644 75.4396 12.2644H80.1681V13.7917H75.4396V16.1428L79.2462 16.1494C79.6548 16.1494 79.997 16.2955 80.2605 16.5811C80.5307 16.8707 80.6642 17.2318 80.6642 17.6807V20.6692Z" fill="#102694"/>
<path d="M88.7572 20.6692C88.7572 21.126 88.6254 21.4884 88.3659 21.7811C88.1001 22.0557 87.7663 22.1996 87.3392 22.1996H83.0529C82.6421 22.1996 82.2994 22.0557 82.0354 21.7811C81.7701 21.4884 81.6371 21.126 81.6371 20.6692V14.4984H83.0529V20.6692H87.3392V14.4984H88.7572V20.6692Z" fill="#102694"/>
<path d="M96.2646 17.5973H94.8511V16.0364H91.1705V22.1992H89.7631V14.4985H94.8511C95.7915 14.4985 96.2646 15.0035 96.2646 16.0364V17.5973Z" fill="#102694"/>
<path d="M104.287 20.6692C104.287 21.126 104.156 21.4884 103.891 21.7811C103.637 22.0557 103.295 22.1996 102.875 22.1996H98.5793C98.1703 22.1996 97.8317 22.0557 97.569 21.7811C97.298 21.4884 97.1653 21.126 97.1653 20.6692V14.4984H98.5793V20.6692H102.875V14.4984H104.287V20.6692Z" fill="#102694"/>
<path d="M112.501 22.1994H111.088V16.0367H106.799V22.1994H105.379V12.2647H106.799V14.4983H111.088C112.034 14.4983 112.501 15.0033 112.501 16.0367V22.1994Z" fill="#102694"/>
<path d="M120.719 16.0364C120.719 15.5879 120.586 15.2237 120.32 14.9319C120.058 14.6419 119.715 14.4985 119.299 14.4985H113.59V16.0364H119.299V17.5973H115.008C114.595 17.5973 114.254 17.7469 113.994 18.0361C113.726 18.3212 113.59 18.6823 113.59 19.129V20.6692C113.59 21.1132 113.726 21.4757 113.999 21.7679C114.265 22.0561 114.602 22.1992 115.008 22.1992H120.719V16.0364ZM115.008 19.129H119.299V20.6692H115.008V19.129Z" fill="#102694"/>
<path d="M128.544 22.1994H127.128V16.0367H123.199V22.1994H121.789V14.4983H127.128C128.072 14.4983 128.544 15.0033 128.544 16.0367V22.1994Z" fill="#102694"/>
<path d="M132.312 23.229C132.312 23.6607 132.168 24.0324 131.901 24.3242C131.633 24.6168 131.289 24.7656 130.885 24.7656H129.471V23.229H130.885V14.4984H132.312V23.229Z" fill="#102694"/>
<path d="M140.523 16.0364C140.523 15.5879 140.394 15.2237 140.124 14.9319C139.867 14.6419 139.522 14.4985 139.107 14.4985H133.399V16.0364H139.107V17.5973H134.82C134.402 17.5973 134.066 17.7469 133.8 18.0361C133.534 18.3212 133.399 18.6823 133.399 19.129V20.6692C133.399 21.1132 133.534 21.4757 133.812 21.7679C134.072 22.0561 134.407 22.1992 134.82 22.1992H140.523V16.0364ZM134.82 19.129H139.107V20.6692H134.82V19.129Z" fill="#102694"/>
<path d="M148.385 14.4985L144.468 25.3073H143.026L144.107 22.1837L141.273 14.4985H142.745L144.824 20.6255L146.893 14.4985H148.385Z" fill="#102694"/>
<path d="M156.241 16.0364C156.241 15.5879 156.103 15.2237 155.841 14.9319C155.575 14.6419 155.237 14.4985 154.828 14.4985H149.12V16.0364H154.828V17.5973H150.532C150.118 17.5973 149.779 17.7469 149.515 18.0361C149.252 18.3212 149.12 18.6823 149.12 19.129V20.6692C149.12 21.1132 149.252 21.4757 149.526 21.7679C149.785 22.0561 150.129 22.1992 150.532 22.1992H156.241V16.0364ZM150.532 19.129H154.828V20.6692H150.532V19.129Z" fill="#102694"/>
<path d="M165.648 13.5793H162.772V21.9845H161.357V13.5793H158.531V12.0488H165.648V13.5793Z" fill="#102694"/>
<path d="M173.623 15.8213C173.623 15.3697 173.496 15.0033 173.226 14.7195C172.966 14.4228 172.632 14.2807 172.211 14.2807H167.919C167.482 14.2807 167.135 14.4184 166.887 14.6974C166.628 14.9676 166.507 15.3432 166.507 15.8213V20.4527C166.507 20.8999 166.636 21.2764 166.898 21.5638C167.171 21.8379 167.501 21.984 167.919 21.984H173.247V20.4527H167.919V18.9126H172.211C172.635 18.9126 172.975 18.7753 173.238 18.4915C173.496 18.2041 173.623 17.8267 173.623 17.3777V15.8213ZM167.919 15.8213H172.211V17.3777H167.919V15.8213Z" fill="#102694"/>
<path d="M181.451 21.9844H180.036V15.8216H176.112V21.9844H174.695V14.2806H180.036C180.975 14.2806 181.451 14.8015 181.451 15.8216V21.9844Z" fill="#102694"/>
<path d="M189.528 15.8213C189.528 15.3697 189.394 15.0033 189.13 14.7195C188.87 14.4228 188.523 14.2807 188.116 14.2807H182.406V15.8213H188.116V17.3777H183.819C183.403 17.3777 183.066 17.5212 182.805 17.8099C182.535 18.0982 182.406 18.4738 182.406 18.9126V20.4527C182.406 20.895 182.54 21.2627 182.805 21.5488C183.076 21.8379 183.42 21.984 183.819 21.984H189.528V15.8213ZM183.819 18.9126H188.116V20.4527H183.819V18.9126Z" fill="#102694"/>
<path d="M197.763 14.2807H192.058C191.636 14.2807 191.296 14.4229 191.034 14.7085C190.778 14.9936 190.642 15.3591 190.642 15.8213V20.4996C190.642 20.9079 190.786 21.2694 191.068 21.5488C191.343 21.8384 191.676 21.9845 192.058 21.9845H196.352V23.0091H190.627V24.5435H196.352C197.291 24.5435 197.763 24.0323 197.763 23.0091V14.2807ZM192.058 15.8213H196.352V20.4528H192.058V15.8213Z" fill="#102694"/>
<path d="M206 15.8213C206 15.3697 205.869 15.0033 205.604 14.7195C205.343 14.4228 205.002 14.2807 204.59 14.2807H198.879V15.8213H204.59V17.3777H200.303C199.877 17.3777 199.549 17.5212 199.282 17.8099C199.014 18.0982 198.879 18.4738 198.879 18.9126V20.4527C198.879 20.895 199.014 21.2627 199.286 21.5488C199.552 21.8379 199.887 21.984 200.303 21.984H206V15.8213ZM200.303 18.9126H204.59V20.4527H200.303V18.9126Z" fill="#102694"/>
<path d="M22.0486 15.2888C22.0486 6.84874 36.8451 1.08184e-06 55.0945 1.08184e-06C65.7461 1.08184e-06 75.2173 2.33294 81.2638 5.96765C75.4432 4.50697 68.4575 3.6612 60.9398 3.6612C40.6795 3.6612 24.2638 9.81469 24.2638 17.4072C24.2638 23.0716 33.402 27.9287 46.4506 30.0484C32.3925 28.288 22.0486 22.3508 22.0486 15.2888Z" fill="#FF2E17"/>
<path d="M54.091 21.2149C54.091 17.7025 50.7646 14.4664 45.1748 11.884C57.9648 14.3507 66.3999 18.5558 66.3999 23.336C66.3999 30.9267 45.0868 37.078 18.7959 37.078C12.1219 37.078 5.76535 36.6777 0 35.9665C3.57754 36.3108 7.33282 36.5006 11.2093 36.5006C34.8963 36.5006 54.091 29.6541 54.091 21.2149Z" fill="#FF2E17"/>
</svg>
